<!-- svg obtained from https://bgjar.com/-->
<svg xmlns="http://www.w3.org/2000/svg" version="1.1" xmlns:xlink="http://www.w3.org/1999/xlink" xmlns:svgjs="http://svgjs.com/svgjs" width="1440" height="560" preserveAspectRatio="none" viewBox="0 0 1440 560"><g mask="url(&quot;#SvgjsMask1044&quot;)" fill="none"><rect width="1440" height="560" x="0" y="0" fill="rgba(0, 75, 35, 1)"></rect><use xlink:href="#SvgjsG1047" transform="translate(0, 0)" fill="rgba(0, 82, 39, 1)"></use><use xlink:href="#SvgjsG1047" transform="translate(0, 510)" fill="rgba(0, 82, 39, 1)"></use><use xlink:href="#SvgjsG1047" transform="translate(510, 0)" fill="rgba(0, 82, 39, 1)"></use><use xlink:href="#SvgjsG1047" transform="translate(510, 510)" fill="rgba(0, 82, 39, 1)"></use><use xlink:href="#SvgjsG1047" transform="translate(1020, 0)" fill="rgba(0, 82, 39, 1)"></use><use xlink:href="#SvgjsG1047" transform="translate(1020, 510)" fill="rgba(0, 82, 39, 1)"></use></g><defs><mask id="SvgjsMask1044"><rect width="1440" height="560" fill="#ffffff"></rect></mask><g id="SvgjsG1045"><path d="M15.818 14.884H0.137L7.978 1.3 15.818 14.884zM3.252 13.084h9.45L7.978 4.899 3.252 13.084z" fill-rule="evenodd"></path></g><g id="SvgjsG1046"><path d="M0.031 14.203L8 0.4l7.969 13.803z"></path></g><g id="SvgjsG1047"><use xlink:href="#SvgjsG1045" transform="translate(0, 0) scale(3)" fill="rgba(0, 82, 39, 1)"></use><use xlink:href="#SvgjsG1046" transform="translate(0, 51) scale(3)" fill="rgba(0, 82, 39, 1)"></use><use xlink:href="#SvgjsG1045" transform="translate(0, 102) scale(3)" fill="rgba(0, 82, 39, 1)"></use><use xlink:href="#SvgjsG1046" transform="translate(0, 153) scale(3)" fill="rgba(0, 82, 39, 1)"></use><use xlink:href="#SvgjsG1045" transform="translate(0, 204) scale(3)" fill="rgba(0, 82, 39, 1)"></use><use xlink:href="#SvgjsG1046" transform="translate(0, 255) scale(3)" fill="rgba(0, 82, 39, 1)"></use><use xlink:href="#SvgjsG1045" transform="translate(0, 306) scale(3)" fill="rgba(0, 82, 39, 1)"></use><use xlink:href="#SvgjsG1046" transform="translate(0, 357) scale(3)" fill="rgba(0, 82, 39, 1)"></use><use xlink:href="#SvgjsG1046" transform="translate(0, 408) scale(3)" fill="rgba(0, 82, 39, 1)"></use><use xlink:href="#SvgjsG1045" transform="translate(0, 459) scale(3)" fill="rgba(0, 82, 39, 1)"></use><use xlink:href="#SvgjsG1045" transform="translate(51, 0) scale(3)" fill="rgba(0, 82, 39, 1)"></use><use xlink:href="#SvgjsG1045" transform="translate(51, 51) scale(3)" fill="rgba(0, 82, 39, 1)"></use><use xlink:href="#SvgjsG1045" transform="translate(51, 102) scale(3)" fill="rgba(0, 82, 39, 1)"></use><use xlink:href="#SvgjsG1046" transform="translate(51, 153) scale(3)" fill="rgba(0, 82, 39, 1)"></use><use xlink:href="#SvgjsG1046" transform="translate(51, 204) scale(3)" fill="rgba(0, 82, 39, 1)"></use><use xlink:href="#SvgjsG1045" transform="translate(51, 255) scale(3)" fill="rgba(0, 82, 39, 1)"></use><use xlink:href="#SvgjsG1045" transform="translate(51, 306) scale(3)" fill="rgba(0, 82, 39, 1)"></use><use xlink:href="#SvgjsG1045" transform="translate(51, 357) scale(3)" fill="rgba(0, 82, 39, 1)"></use><use xlink:href="#SvgjsG1046" transform="translate(51, 408) scale(3)" fill="rgba(0, 82, 39, 1)"></use><use xlink:href="#SvgjsG1045" transform="translate(51, 459) scale(3)" fill="rgba(0, 82, 39, 1)"></use><use xlink:href="#SvgjsG1045" transform="translate(102, 0) scale(3)" fill="rgba(0, 82, 39, 1)"></use><use xlink:href="#SvgjsG1045" transform="translate(102, 51) scale(3)" fill="rgba(0, 82, 39, 1)"></use><use xlink:href="#SvgjsG1046" transform="translate(102, 102) scale(3)" fill="rgba(0, 82, 39, 1)"></use><use xlink:href="#SvgjsG1046" transform="translate(102, 153) scale(3)" fill="rgba(0, 82, 39, 1)"></use><use xlink:href="#SvgjsG1045" transform="translate(102, 204) scale(3)" fill="rgba(0, 82, 39, 1)"></use><use xlink:href="#SvgjsG1045" transform="translate(102, 255) scale(3)" fill="rgba(0, 82, 39, 1)"></use><use xlink:href="#SvgjsG1045" transform="translate(102, 306) scale(3)" fill="rgba(0, 82, 39, 1)"></use><use xlink:href="#SvgjsG1045" transform="translate(102, 357) scale(3)" fill="rgba(0, 82, 39, 1)"></use><use xlink:href="#SvgjsG1045" transform="translate(102, 408) scale(3)" fill="rgba(0, 82, 39, 1)"></use><use xlink:href="#SvgjsG1045" transform="translate(102, 459) scale(3)" fill="rgba(0, 82, 39, 1)"></use><use xlink:href="#SvgjsG1045" transform="translate(153, 0) scale(3)" fill="rgba(0, 82, 39, 1)"></use><use xlink:href="#SvgjsG1045" transform="translate(153, 51) scale(3)" fill="rgba(0, 82, 39, 1)"></use><use xlink:href="#SvgjsG1046" transform="translate(153, 102) scale(3)" fill="rgba(0, 82, 39, 1)"></use><use xlink:href="#SvgjsG1045" transform="translate(153, 153) scale(3)" fill="rgba(0, 82, 39, 1)"></use><use xlink:href="#SvgjsG1046" transform="translate(153, 204) scale(3)" fill="rgba(0, 82, 39, 1)"></use><use xlink:href="#SvgjsG1046" transform="translate(153, 255) scale(3)" fill="rgba(0, 82, 39, 1)"></use><use xlink:href="#SvgjsG1046" transform="translate(153, 306) scale(3)" fill="rgba(0, 82, 39, 1)"></use><use xlink:href="#SvgjsG1046" transform="translate(153, 357) scale(3)" fill="rgba(0, 82, 39, 1)"></use><use xlink:href="#SvgjsG1046" transform="translate(153, 408) scale(3)" fill="rgba(0, 82, 39, 1)"></use><use xlink:href="#SvgjsG1045" transform="translate(153, 459) scale(3)" fill="rgba(0, 82, 39, 1)"></use><use xlink:href="#SvgjsG1045" transform="translate(204, 0) scale(3)" fill="rgba(0, 82, 39, 1)"></use><use xlink:href="#SvgjsG1045" transform="translate(204, 51) scale(3)" fill="rgba(0, 82, 39, 1)"></use><use xlink:href="#SvgjsG1045" transform="translate(204, 102) scale(3)" fill="rgba(0, 82, 39, 1)"></use><use xlink:href="#SvgjsG1046" transform="translate(204, 153) scale(3)" fill="rgba(0, 82, 39, 1)"></use><use xlink:href="#SvgjsG1045" transform="translate(204, 204) scale(3)" fill="rgba(0, 82, 39, 1)"></use><use xlink:href="#SvgjsG1046" transform="translate(204, 255) scale(3)" fill="rgba(0, 82, 39, 1)"></use><use xlink:href="#SvgjsG1045" transform="translate(204, 306) scale(3)" fill="rgba(0, 82, 39, 1)"></use><use xlink:href="#SvgjsG1045" transform="translate(204, 357) scale(3)" fill="rgba(0, 82, 39, 1)"></use><use xlink:href="#SvgjsG1045" transform="translate(204, 408) scale(3)" fill="rgba(0, 82, 39, 1)"></use><use xlink:href="#SvgjsG1045" transform="translate(204, 459) scale(3)" fill="rgba(0, 82, 39, 1)"></use><use xlink:href="#SvgjsG1046" transform="translate(255, 0) scale(3)" fill="rgba(0, 82, 39, 1)"></use><use xlink:href="#SvgjsG1046" transform="translate(255, 51) scale(3)" fill="rgba(0, 82, 39, 1)"></use><use xlink:href="#SvgjsG1046" transform="translate(255, 102) scale(3)" fill="rgba(0, 82, 39, 1)"></use><use xlink:href="#SvgjsG1046" transform="translate(255, 153) scale(3)" fill="rgba(0, 82, 39, 1)"></use><use xlink:href="#SvgjsG1046" transform="translate(255, 204) scale(3)" fill="rgba(0, 82, 39, 1)"></use><use xlink:href="#SvgjsG1045" transform="translate(255, 255) scale(3)" fill="rgba(0, 82, 39, 1)"></use><use xlink:href="#SvgjsG1046" transform="translate(255, 306) scale(3)" fill="rgba(0, 82, 39, 1)"></use><use xlink:href="#SvgjsG1046" transform="translate(255, 357) scale(3)" fill="rgba(0, 82, 39, 1)"></use><use xlink:href="#SvgjsG1045" transform="translate(255, 408) scale(3)" fill="rgba(0, 82, 39, 1)"></use><use xlink:href="#SvgjsG1045" transform="translate(255, 459) scale(3)" fill="rgba(0, 82, 39, 1)"></use><use xlink:href="#SvgjsG1045" transform="translate(306, 0) scale(3)" fill="rgba(0, 82, 39, 1)"></use><use xlink:href="#SvgjsG1046" transform="translate(306, 51) scale(3)" fill="rgba(0, 82, 39, 1)"></use><use xlink:href="#SvgjsG1045" transform="translate(306, 102) scale(3)" fill="rgba(0, 82, 39, 1)"></use><use xlink:href="#SvgjsG1046" transform="translate(306, 153) scale(3)" fill="rgba(0, 82, 39, 1)"></use><use xlink:href="#SvgjsG1045" transform="translate(306, 204) scale(3)" fill="rgba(0, 82, 39, 1)"></use><use xlink:href="#SvgjsG1045" transform="translate(306, 255) scale(3)" fill="rgba(0, 82, 39, 1)"></use><use xlink:href="#SvgjsG1046" transform="translate(306, 306) scale(3)" fill="rgba(0, 82, 39, 1)"></use><use xlink:href="#SvgjsG1045" transform="translate(306, 357) scale(3)" fill="rgba(0, 82, 39, 1)"></use><use xlink:href="#SvgjsG1046" transform="translate(306, 408) scale(3)" fill="rgba(0, 82, 39, 1)"></use><use xlink:href="#SvgjsG1046" transform="translate(306, 459) scale(3)" fill="rgba(0, 82, 39, 1)"></use><use xlink:href="#SvgjsG1046" transform="translate(357, 0) scale(3)" fill="rgba(0, 82, 39, 1)"></use><use xlink:href="#SvgjsG1045" transform="translate(357, 51) scale(3)" fill="rgba(0, 82, 39, 1)"></use><use xlink:href="#SvgjsG1046" transform="translate(357, 102) scale(3)" fill="rgba(0, 82, 39, 1)"></use><use xlink:href="#SvgjsG1046" transform="translate(357, 153) scale(3)" fill="rgba(0, 82, 39, 1)"></use><use xlink:href="#SvgjsG1045" transform="translate(357, 204) scale(3)" fill="rgba(0, 82, 39, 1)"></use><use xlink:href="#SvgjsG1046" transform="translate(357, 255) scale(3)" fill="rgba(0, 82, 39, 1)"></use><use xlink:href="#SvgjsG1045" transform="translate(357, 306) scale(3)" fill="rgba(0, 82, 39, 1)"></use><use xlink:href="#SvgjsG1046" transform="translate(357, 357) scale(3)" fill="rgba(0, 82, 39, 1)"></use><use xlink:href="#SvgjsG1045" transform="translate(357, 408) scale(3)" fill="rgba(0, 82, 39, 1)"></use><use xlink:href="#SvgjsG1046" transform="translate(357, 459) scale(3)" fill="rgba(0, 82, 39, 1)"></use><use xlink:href="#SvgjsG1045" transform="translate(408, 0) scale(3)" fill="rgba(0, 82, 39, 1)"></use><use xlink:href="#SvgjsG1046" transform="translate(408, 51) scale(3)" fill="rgba(0, 82, 39, 1)"></use><use xlink:href="#SvgjsG1045" transform="translate(408, 102) scale(3)" fill="rgba(0, 82, 39, 1)"></use><use xlink:href="#SvgjsG1046" transform="translate(408, 153) scale(3)" fill="rgba(0, 82, 39, 1)"></use><use xlink:href="#SvgjsG1046" transform="translate(408, 204) scale(3)" fill="rgba(0, 82, 39, 1)"></use><use xlink:href="#SvgjsG1045" transform="translate(408, 255) scale(3)" fill="rgba(0, 82, 39, 1)"></use><use xlink:href="#SvgjsG1046" transform="translate(408, 306) scale(3)" fill="rgba(0, 82, 39, 1)"></use><use xlink:href="#SvgjsG1046" transform="translate(408, 357) scale(3)" fill="rgba(0, 82, 39, 1)"></use><use xlink:href="#SvgjsG1046" transform="translate(408, 408) scale(3)" fill="rgba(0, 82, 39, 1)"></use><use xlink:href="#SvgjsG1046" transform="translate(408, 459) scale(3)" fill="rgba(0, 82, 39, 1)"></use><use xlink:href="#SvgjsG1045" transform="translate(459, 0) scale(3)" fill="rgba(0, 82, 39, 1)"></use><use xlink:href="#SvgjsG1045" transform="translate(459, 51) scale(3)" fill="rgba(0, 82, 39, 1)"></use><use xlink:href="#SvgjsG1045" transform="translate(459, 102) scale(3)" fill="rgba(0, 82, 39, 1)"></use><use xlink:href="#SvgjsG1045" transform="translate(459, 153) scale(3)" fill="rgba(0, 82, 39, 1)"></use><use xlink:href="#SvgjsG1045" transform="translate(459, 204) scale(3)" fill="rgba(0, 82, 39, 1)"></use><use xlink:href="#SvgjsG1045" transform="translate(459, 255) scale(3)" fill="rgba(0, 82, 39, 1)"></use><use xlink:href="#SvgjsG1045" transform="translate(459, 306) scale(3)" fill="rgba(0, 82, 39, 1)"></use><use xlink:href="#SvgjsG1045" transform="translate(459, 357) scale(3)" fill="rgba(0, 82, 39, 1)"></use><use xlink:href="#SvgjsG1046" transform="translate(459, 408) scale(3)" fill="rgba(0, 82, 39, 1)"></use><use xlink:href="#SvgjsG1045" transform="translate(459, 459) scale(3)" fill="rgba(0, 82, 39, 1)"></use></g></defs></svg>