<!--designed by Clayton Bond-->
<svg width="489" height="172" viewBox="0 0 489 172" fill="none" xmlns="http://www.w3.org/2000/svg">
<g filter="url(#filter0_d_48_49)">
<path d="M173.455 11.0909V46H165.545L152.932 27.6591H152.727V46H143.25V11.0909H151.295L163.705 29.3636H163.977V11.0909H173.455ZM190.619 46.4773C187.824 46.4773 185.415 45.9432 183.392 44.875C181.381 43.7955 179.83 42.25 178.739 40.2386C177.659 38.2159 177.119 35.7955 177.119 32.9773C177.119 30.2727 177.665 27.9091 178.756 25.8864C179.847 23.8636 181.386 22.2898 183.375 21.1648C185.364 20.0398 187.71 19.4773 190.415 19.4773C192.392 19.4773 194.182 19.7841 195.784 20.3977C197.386 21.0114 198.756 21.9034 199.892 23.0739C201.028 24.233 201.903 25.642 202.517 27.3011C203.131 28.9602 203.438 30.8295 203.438 32.9091V35.0909H180.051V29.9091H194.778C194.767 29.1591 194.574 28.5 194.199 27.9318C193.835 27.3523 193.341 26.9034 192.716 26.5852C192.102 26.2557 191.403 26.0909 190.619 26.0909C189.858 26.0909 189.159 26.2557 188.523 26.5852C187.886 26.9034 187.375 27.3466 186.989 27.9148C186.614 28.483 186.415 29.1477 186.392 29.9091V35.5C186.392 36.3409 186.568 37.0909 186.92 37.75C187.273 38.4091 187.778 38.9261 188.438 39.3011C189.097 39.6761 189.892 39.8636 190.824 39.8636C191.472 39.8636 192.063 39.7727 192.597 39.5909C193.142 39.4091 193.608 39.1477 193.994 38.8068C194.381 38.4545 194.665 38.0341 194.847 37.5455H203.438C203.142 39.3636 202.443 40.9432 201.341 42.2841C200.239 43.6136 198.778 44.6477 196.96 45.3864C195.153 46.1136 193.04 46.4773 190.619 46.4773ZM211.585 46L205.04 19.8182H214.449L217.449 35.7727H217.653L220.994 19.8182H230.131L233.608 35.6364H233.812L236.676 19.8182H246.085L239.54 46H229.381L225.699 31.9545H225.426L221.744 46H211.585ZM258.511 46V40.75L275.011 18.7273H258.58V11.0909H287.08V16.3409L270.58 38.3636H287.011V46H258.511ZM304.385 46.4773C301.589 46.4773 299.18 45.9432 297.158 44.875C295.146 43.7955 293.595 42.25 292.504 40.2386C291.425 38.2159 290.885 35.7955 290.885 32.9773C290.885 30.2727 291.43 27.9091 292.521 25.8864C293.612 23.8636 295.152 22.2898 297.141 21.1648C299.129 20.0398 301.476 19.4773 304.18 19.4773C306.158 19.4773 307.947 19.7841 309.55 20.3977C311.152 21.0114 312.521 21.9034 313.658 23.0739C314.794 24.233 315.669 25.642 316.283 27.3011C316.896 28.9602 317.203 30.8295 317.203 32.9091V35.0909H293.817V29.9091H308.544C308.533 29.1591 308.339 28.5 307.964 27.9318C307.601 27.3523 307.107 26.9034 306.482 26.5852C305.868 26.2557 305.169 26.0909 304.385 26.0909C303.624 26.0909 302.925 26.2557 302.288 26.5852C301.652 26.9034 301.141 27.3466 300.754 27.9148C300.379 28.483 300.18 29.1477 300.158 29.9091V35.5C300.158 36.3409 300.334 37.0909 300.686 37.75C301.038 38.4091 301.544 38.9261 302.203 39.3011C302.862 39.6761 303.658 39.8636 304.589 39.8636C305.237 39.8636 305.828 39.7727 306.362 39.5909C306.908 39.4091 307.374 39.1477 307.76 38.8068C308.146 38.4545 308.43 38.0341 308.612 37.5455H317.203C316.908 39.3636 316.209 40.9432 315.107 42.2841C314.004 43.6136 312.544 44.6477 310.726 45.3864C308.919 46.1136 306.805 46.4773 304.385 46.4773ZM328.338 46.4091C326.668 46.4091 325.19 46.1364 323.906 45.5909C322.634 45.0341 321.634 44.1932 320.906 43.0682C320.179 41.9432 319.815 40.5114 319.815 38.7727C319.815 37.3409 320.06 36.1193 320.548 35.108C321.037 34.0852 321.719 33.25 322.594 32.6023C323.469 31.9545 324.486 31.4602 325.645 31.1193C326.815 30.7784 328.077 30.5568 329.429 30.4545C330.895 30.3409 332.071 30.2045 332.957 30.0455C333.855 29.875 334.503 29.642 334.901 29.3466C335.298 29.0398 335.497 28.6364 335.497 28.1364V28.0682C335.497 27.3864 335.236 26.8636 334.713 26.5C334.19 26.1364 333.52 25.9545 332.702 25.9545C331.804 25.9545 331.071 26.1534 330.503 26.5511C329.946 26.9375 329.611 27.5341 329.497 28.3409H320.838C320.952 26.75 321.457 25.2841 322.355 23.9432C323.264 22.5909 324.588 21.5114 326.327 20.7045C328.065 19.8864 330.236 19.4773 332.838 19.4773C334.713 19.4773 336.395 19.6989 337.884 20.142C339.372 20.5739 340.639 21.1818 341.685 21.9659C342.73 22.7386 343.526 23.6477 344.071 24.6932C344.628 25.7273 344.906 26.8523 344.906 28.0682V46H336.111V42.3182H335.906C335.384 43.2955 334.747 44.0852 333.997 44.6875C333.259 45.2898 332.412 45.7273 331.457 46C330.514 46.2727 329.474 46.4091 328.338 46.4091ZM331.406 40.4773C332.122 40.4773 332.793 40.3295 333.418 40.0341C334.054 39.7386 334.571 39.3125 334.969 38.7557C335.366 38.1989 335.565 37.5227 335.565 36.7273V34.5455C335.315 34.6477 335.048 34.7443 334.764 34.8352C334.491 34.9261 334.196 35.0114 333.878 35.0909C333.571 35.1705 333.241 35.2443 332.889 35.3125C332.548 35.3807 332.19 35.4432 331.815 35.5C331.088 35.6136 330.491 35.8011 330.026 36.0625C329.571 36.3125 329.23 36.625 329.003 37C328.787 37.3636 328.679 37.7727 328.679 38.2273C328.679 38.9545 328.935 39.5114 329.446 39.8977C329.957 40.2841 330.611 40.4773 331.406 40.4773ZM358.811 11.0909V46H349.402V11.0909H358.811ZM370.901 46.4091C369.23 46.4091 367.753 46.1364 366.469 45.5909C365.196 45.0341 364.196 44.1932 363.469 43.0682C362.741 41.9432 362.378 40.5114 362.378 38.7727C362.378 37.3409 362.622 36.1193 363.111 35.108C363.599 34.0852 364.281 33.25 365.156 32.6023C366.031 31.9545 367.048 31.4602 368.207 31.1193C369.378 30.7784 370.639 30.5568 371.991 30.4545C373.457 30.3409 374.634 30.2045 375.52 30.0455C376.418 29.875 377.065 29.642 377.463 29.3466C377.861 29.0398 378.06 28.6364 378.06 28.1364V28.0682C378.06 27.3864 377.798 26.8636 377.276 26.5C376.753 26.1364 376.082 25.9545 375.264 25.9545C374.366 25.9545 373.634 26.1534 373.065 26.5511C372.509 26.9375 372.173 27.5341 372.06 28.3409H363.401C363.514 26.75 364.02 25.2841 364.918 23.9432C365.827 22.5909 367.151 21.5114 368.889 20.7045C370.628 19.8864 372.798 19.4773 375.401 19.4773C377.276 19.4773 378.957 19.6989 380.446 20.142C381.935 20.5739 383.202 21.1818 384.247 21.9659C385.293 22.7386 386.088 23.6477 386.634 24.6932C387.19 25.7273 387.469 26.8523 387.469 28.0682V46H378.673V42.3182H378.469C377.946 43.2955 377.31 44.0852 376.56 44.6875C375.821 45.2898 374.974 45.7273 374.02 46C373.077 46.2727 372.037 46.4091 370.901 46.4091ZM373.969 40.4773C374.685 40.4773 375.355 40.3295 375.98 40.0341C376.616 39.7386 377.134 39.3125 377.531 38.7557C377.929 38.1989 378.128 37.5227 378.128 36.7273V34.5455C377.878 34.6477 377.611 34.7443 377.327 34.8352C377.054 34.9261 376.759 35.0114 376.44 35.0909C376.134 35.1705 375.804 35.2443 375.452 35.3125C375.111 35.3807 374.753 35.4432 374.378 35.5C373.651 35.6136 373.054 35.8011 372.588 36.0625C372.134 36.3125 371.793 36.625 371.565 37C371.349 37.3636 371.241 37.7727 371.241 38.2273C371.241 38.9545 371.497 39.5114 372.009 39.8977C372.52 40.2841 373.173 40.4773 373.969 40.4773ZM401.374 31.2727V46H391.964V19.8182H400.896V24.7955H401.169C401.737 23.1364 402.737 21.8352 404.169 20.892C405.612 19.9489 407.294 19.4773 409.214 19.4773C411.067 19.4773 412.675 19.9034 414.038 20.7557C415.413 21.5966 416.476 22.7557 417.226 24.233C417.987 25.7102 418.362 27.3977 418.351 29.2955V46H408.942V31.2727C408.953 29.9773 408.624 28.9602 407.953 28.2216C407.294 27.483 406.374 27.1136 405.192 27.1136C404.419 27.1136 403.743 27.2841 403.163 27.625C402.595 27.9545 402.158 28.4318 401.851 29.0568C401.544 29.6705 401.385 30.4091 401.374 31.2727ZM432.473 46.3409C430.609 46.3409 428.893 45.8523 427.325 44.875C425.768 43.8977 424.518 42.4148 423.575 40.4261C422.643 38.4375 422.178 35.9318 422.178 32.9091C422.178 29.75 422.666 27.1818 423.643 25.2045C424.632 23.2273 425.905 21.7784 427.462 20.858C429.03 19.9375 430.678 19.4773 432.405 19.4773C433.7 19.4773 434.837 19.7045 435.814 20.1591C436.791 20.6023 437.609 21.1989 438.268 21.9489C438.928 22.6875 439.428 23.5 439.768 24.3864H439.905V11.0909H449.314V46H439.973V41.7045H439.768C439.405 42.5909 438.882 43.3864 438.2 44.0909C437.53 44.7841 436.712 45.3352 435.746 45.7443C434.791 46.142 433.7 46.3409 432.473 46.3409ZM435.95 39.1136C436.814 39.1136 437.553 38.8636 438.166 38.3636C438.791 37.8523 439.268 37.1364 439.598 36.2159C439.939 35.2841 440.109 34.1818 440.109 32.9091C440.109 31.6136 439.939 30.5057 439.598 29.5852C439.268 28.6534 438.791 27.9432 438.166 27.4545C437.553 26.9545 436.814 26.7045 435.95 26.7045C435.087 26.7045 434.348 26.9545 433.734 27.4545C433.132 27.9432 432.666 28.6534 432.337 29.5852C432.018 30.5057 431.859 31.6136 431.859 32.9091C431.859 34.2045 432.018 35.3182 432.337 36.25C432.666 37.1705 433.132 37.8807 433.734 38.3807C434.348 38.8693 435.087 39.1136 435.95 39.1136ZM173.455 69.0909V104H165.545L152.932 85.6591H152.727V104H143.25V69.0909H151.295L163.705 87.3636H163.977V69.0909H173.455ZM185.369 104.409C183.699 104.409 182.222 104.136 180.938 103.591C179.665 103.034 178.665 102.193 177.938 101.068C177.21 99.9432 176.847 98.5114 176.847 96.7727C176.847 95.3409 177.091 94.1193 177.58 93.108C178.068 92.0852 178.75 91.25 179.625 90.6023C180.5 89.9545 181.517 89.4602 182.676 89.1193C183.847 88.7784 185.108 88.5568 186.46 88.4545C187.926 88.3409 189.102 88.2045 189.989 88.0455C190.886 87.875 191.534 87.642 191.932 87.3466C192.33 87.0398 192.528 86.6364 192.528 86.1364V86.0682C192.528 85.3864 192.267 84.8636 191.744 84.5C191.222 84.1364 190.551 83.9545 189.733 83.9545C188.835 83.9545 188.102 84.1534 187.534 84.5511C186.977 84.9375 186.642 85.5341 186.528 86.3409H177.869C177.983 84.75 178.489 83.2841 179.386 81.9432C180.295 80.5909 181.619 79.5114 183.358 78.7045C185.097 77.8864 187.267 77.4773 189.869 77.4773C191.744 77.4773 193.426 77.6989 194.915 78.142C196.403 78.5739 197.67 79.1818 198.716 79.9659C199.761 80.7386 200.557 81.6477 201.102 82.6932C201.659 83.7273 201.938 84.8523 201.938 86.0682V104H193.142V100.318H192.938C192.415 101.295 191.778 102.085 191.028 102.688C190.29 103.29 189.443 103.727 188.489 104C187.545 104.273 186.506 104.409 185.369 104.409ZM188.438 98.4773C189.153 98.4773 189.824 98.3295 190.449 98.0341C191.085 97.7386 191.602 97.3125 192 96.7557C192.398 96.1989 192.597 95.5227 192.597 94.7273V92.5455C192.347 92.6477 192.08 92.7443 191.795 92.8352C191.523 92.9261 191.227 93.0114 190.909 93.0909C190.602 93.1705 190.273 93.2443 189.92 93.3125C189.58 93.3807 189.222 93.4432 188.847 93.5C188.119 93.6136 187.523 93.8011 187.057 94.0625C186.602 94.3125 186.261 94.625 186.034 95C185.818 95.3636 185.71 95.7727 185.71 96.2273C185.71 96.9545 185.966 97.5114 186.477 97.8977C186.989 98.2841 187.642 98.4773 188.438 98.4773ZM222.047 77.8182V84.6364H204.797V77.8182H222.047ZM208.138 71.5455H217.547V95.5795C217.547 95.9432 217.609 96.25 217.734 96.5C217.859 96.7386 218.053 96.9205 218.314 97.0455C218.575 97.1591 218.911 97.2159 219.32 97.2159C219.604 97.2159 219.933 97.1818 220.308 97.1136C220.695 97.0455 220.979 96.9886 221.161 96.9432L222.524 103.557C222.104 103.682 221.501 103.835 220.717 104.017C219.945 104.199 219.024 104.318 217.956 104.375C215.797 104.489 213.984 104.267 212.518 103.71C211.053 103.142 209.95 102.25 209.212 101.034C208.473 99.8182 208.115 98.2955 208.138 96.4659V71.5455ZM225.886 104V77.8182H235.295V104H225.886ZM230.591 75.0909C229.318 75.0909 228.227 74.6705 227.318 73.8295C226.409 72.9886 225.955 71.9773 225.955 70.7955C225.955 69.6136 226.409 68.6023 227.318 67.7614C228.227 66.9205 229.318 66.5 230.591 66.5C231.875 66.5 232.966 66.9205 233.864 67.7614C234.773 68.6023 235.227 69.6136 235.227 70.7955C235.227 71.9773 234.773 72.9886 233.864 73.8295C232.966 74.6705 231.875 75.0909 230.591 75.0909ZM266.476 77.8182L257.68 104H246.771L237.976 77.8182H247.862L252.089 95.1364H252.362L256.589 77.8182H266.476ZM280.901 104.477C278.105 104.477 275.696 103.943 273.673 102.875C271.662 101.795 270.111 100.25 269.02 98.2386C267.94 96.2159 267.401 93.7955 267.401 90.9773C267.401 88.2727 267.946 85.9091 269.037 83.8864C270.128 81.8636 271.668 80.2898 273.656 79.1648C275.645 78.0398 277.991 77.4773 280.696 77.4773C282.673 77.4773 284.463 77.7841 286.065 78.3977C287.668 79.0114 289.037 79.9034 290.173 81.0739C291.31 82.233 292.185 83.642 292.798 85.3011C293.412 86.9602 293.719 88.8295 293.719 90.9091V93.0909H270.332V87.9091H285.06C285.048 87.1591 284.855 86.5 284.48 85.9318C284.116 85.3523 283.622 84.9034 282.997 84.5852C282.384 84.2557 281.685 84.0909 280.901 84.0909C280.139 84.0909 279.44 84.2557 278.804 84.5852C278.168 84.9034 277.656 85.3466 277.27 85.9148C276.895 86.483 276.696 87.1477 276.673 87.9091V93.5C276.673 94.3409 276.849 95.0909 277.202 95.75C277.554 96.4091 278.06 96.9261 278.719 97.3011C279.378 97.6761 280.173 97.8636 281.105 97.8636C281.753 97.8636 282.344 97.7727 282.878 97.5909C283.423 97.4091 283.889 97.1477 284.276 96.8068C284.662 96.4545 284.946 96.0341 285.128 95.5455H293.719C293.423 97.3636 292.724 98.9432 291.622 100.284C290.52 101.614 289.06 102.648 287.241 103.386C285.435 104.114 283.321 104.477 280.901 104.477ZM306.984 104V69.0909H322.121C324.78 69.0909 327.013 69.4489 328.82 70.1648C330.638 70.8807 332.007 71.892 332.928 73.1989C333.859 74.5057 334.325 76.0455 334.325 77.8182C334.325 79.1023 334.041 80.2727 333.473 81.3295C332.916 82.3864 332.132 83.2727 331.121 83.9886C330.109 84.6932 328.928 85.1818 327.575 85.4545V85.7955C329.075 85.8523 330.439 86.233 331.666 86.9375C332.893 87.6307 333.871 88.5909 334.598 89.8182C335.325 91.0341 335.689 92.4659 335.689 94.1136C335.689 96.0227 335.189 97.7216 334.189 99.2102C333.2 100.699 331.791 101.869 329.962 102.722C328.132 103.574 325.95 104 323.416 104H306.984ZM316.462 96.4318H320.893C322.484 96.4318 323.678 96.1364 324.473 95.5455C325.268 94.9432 325.666 94.0568 325.666 92.8864C325.666 92.0682 325.479 91.375 325.104 90.8068C324.729 90.2386 324.195 89.8068 323.501 89.5114C322.82 89.2159 321.996 89.0682 321.03 89.0682H316.462V96.4318ZM316.462 83.2045H320.348C321.178 83.2045 321.911 83.0739 322.547 82.8125C323.183 82.5511 323.678 82.1761 324.03 81.6875C324.393 81.1875 324.575 80.5795 324.575 79.8636C324.575 78.7841 324.189 77.9602 323.416 77.392C322.643 76.8125 321.666 76.5227 320.484 76.5227H316.462V83.2045ZM339.183 104V77.8182H348.592V104H339.183ZM343.888 75.0909C342.615 75.0909 341.524 74.6705 340.615 73.8295C339.706 72.9886 339.251 71.9773 339.251 70.7955C339.251 69.6136 339.706 68.6023 340.615 67.7614C341.524 66.9205 342.615 66.5 343.888 66.5C345.172 66.5 346.263 66.9205 347.161 67.7614C348.07 68.6023 348.524 69.6136 348.524 70.7955C348.524 71.9773 348.07 72.9886 347.161 73.8295C346.263 74.6705 345.172 75.0909 343.888 75.0909ZM353.386 104V77.8182H362.523V82.7955H362.795C363.273 80.9545 364.028 79.608 365.062 78.7557C366.108 77.9034 367.33 77.4773 368.727 77.4773C369.136 77.4773 369.54 77.5114 369.938 77.5795C370.347 77.6364 370.739 77.7216 371.114 77.8352V85.8636C370.648 85.7045 370.074 85.5852 369.392 85.5057C368.71 85.4261 368.125 85.3864 367.636 85.3864C366.716 85.3864 365.886 85.5966 365.148 86.017C364.42 86.4261 363.847 87.0057 363.426 87.7557C363.006 88.4943 362.795 89.3636 362.795 90.3636V104H353.386ZM382.176 104.341C380.312 104.341 378.597 103.852 377.028 102.875C375.472 101.898 374.222 100.415 373.278 98.4261C372.347 96.4375 371.881 93.9318 371.881 90.9091C371.881 87.75 372.369 85.1818 373.347 83.2045C374.335 81.2273 375.608 79.7784 377.165 78.858C378.733 77.9375 380.381 77.4773 382.108 77.4773C383.403 77.4773 384.54 77.7045 385.517 78.1591C386.494 78.6023 387.313 79.1989 387.972 79.9489C388.631 80.6875 389.131 81.5 389.472 82.3864H389.608V69.0909H399.017V104H389.676V99.7045H389.472C389.108 100.591 388.585 101.386 387.903 102.091C387.233 102.784 386.415 103.335 385.449 103.744C384.494 104.142 383.403 104.341 382.176 104.341ZM385.653 97.1136C386.517 97.1136 387.256 96.8636 387.869 96.3636C388.494 95.8523 388.972 95.1364 389.301 94.2159C389.642 93.2841 389.812 92.1818 389.812 90.9091C389.812 89.6136 389.642 88.5057 389.301 87.5852C388.972 86.6534 388.494 85.9432 387.869 85.4545C387.256 84.9545 386.517 84.7045 385.653 84.7045C384.79 84.7045 384.051 84.9545 383.438 85.4545C382.835 85.9432 382.369 86.6534 382.04 87.5852C381.722 88.5057 381.562 89.6136 381.562 90.9091C381.562 92.2045 381.722 93.3182 382.04 94.25C382.369 95.1705 382.835 95.8807 383.438 96.3807C384.051 96.8693 384.79 97.1136 385.653 97.1136Z" fill="white"/>
</g>
<g filter="url(#filter1_d_48_49)">
<path d="M175.841 133.182H166.227C166.159 132.386 165.977 131.665 165.682 131.017C165.398 130.369 165 129.812 164.489 129.347C163.989 128.869 163.381 128.506 162.665 128.256C161.949 127.994 161.136 127.864 160.227 127.864C158.636 127.864 157.29 128.25 156.188 129.023C155.097 129.795 154.267 130.903 153.699 132.347C153.142 133.79 152.864 135.523 152.864 137.545C152.864 139.682 153.148 141.472 153.716 142.915C154.295 144.347 155.131 145.426 156.222 146.153C157.313 146.869 158.625 147.227 160.159 147.227C161.034 147.227 161.818 147.119 162.511 146.903C163.205 146.676 163.807 146.352 164.318 145.932C164.83 145.511 165.244 145.006 165.562 144.415C165.892 143.812 166.114 143.136 166.227 142.386L175.841 142.455C175.727 143.932 175.313 145.437 174.597 146.972C173.881 148.494 172.864 149.903 171.545 151.199C170.239 152.483 168.619 153.517 166.688 154.301C164.756 155.085 162.511 155.477 159.955 155.477C156.75 155.477 153.875 154.79 151.33 153.415C148.795 152.04 146.79 150.017 145.312 147.347C143.847 144.676 143.114 141.409 143.114 137.545C143.114 133.659 143.864 130.386 145.364 127.727C146.864 125.057 148.886 123.04 151.432 121.676C153.977 120.301 156.818 119.614 159.955 119.614C162.159 119.614 164.188 119.915 166.04 120.517C167.892 121.119 169.517 122 170.915 123.159C172.313 124.307 173.438 125.722 174.29 127.403C175.142 129.085 175.659 131.011 175.841 133.182ZM187.572 155.409C185.902 155.409 184.425 155.136 183.141 154.591C181.868 154.034 180.868 153.193 180.141 152.068C179.413 150.943 179.05 149.511 179.05 147.773C179.05 146.341 179.294 145.119 179.783 144.108C180.271 143.085 180.953 142.25 181.828 141.602C182.703 140.955 183.72 140.46 184.879 140.119C186.05 139.778 187.311 139.557 188.663 139.455C190.129 139.341 191.305 139.205 192.192 139.045C193.089 138.875 193.737 138.642 194.135 138.347C194.533 138.04 194.732 137.636 194.732 137.136V137.068C194.732 136.386 194.47 135.864 193.947 135.5C193.425 135.136 192.754 134.955 191.936 134.955C191.038 134.955 190.305 135.153 189.737 135.551C189.18 135.937 188.845 136.534 188.732 137.341H180.072C180.186 135.75 180.692 134.284 181.589 132.943C182.499 131.591 183.822 130.511 185.561 129.705C187.3 128.886 189.47 128.477 192.072 128.477C193.947 128.477 195.629 128.699 197.118 129.142C198.607 129.574 199.874 130.182 200.919 130.966C201.964 131.739 202.76 132.648 203.305 133.693C203.862 134.727 204.141 135.852 204.141 137.068V155H195.345V151.318H195.141C194.618 152.295 193.982 153.085 193.232 153.688C192.493 154.29 191.646 154.727 190.692 155C189.749 155.273 188.709 155.409 187.572 155.409ZM190.641 149.477C191.357 149.477 192.027 149.33 192.652 149.034C193.288 148.739 193.805 148.312 194.203 147.756C194.601 147.199 194.8 146.523 194.8 145.727V143.545C194.55 143.648 194.283 143.744 193.999 143.835C193.726 143.926 193.43 144.011 193.112 144.091C192.805 144.17 192.476 144.244 192.124 144.312C191.783 144.381 191.425 144.443 191.05 144.5C190.322 144.614 189.726 144.801 189.26 145.062C188.805 145.312 188.464 145.625 188.237 146C188.021 146.364 187.913 146.773 187.913 147.227C187.913 147.955 188.169 148.511 188.68 148.898C189.192 149.284 189.845 149.477 190.641 149.477ZM224.25 128.818V135.636H207V128.818H224.25ZM210.341 122.545H219.75V146.58C219.75 146.943 219.812 147.25 219.938 147.5C220.062 147.739 220.256 147.92 220.517 148.045C220.778 148.159 221.114 148.216 221.523 148.216C221.807 148.216 222.136 148.182 222.511 148.114C222.898 148.045 223.182 147.989 223.364 147.943L224.727 154.557C224.307 154.682 223.705 154.835 222.92 155.017C222.148 155.199 221.227 155.318 220.159 155.375C218 155.489 216.188 155.267 214.722 154.71C213.256 154.142 212.153 153.25 211.415 152.034C210.676 150.818 210.318 149.295 210.341 147.466V122.545ZM235.385 155.409C233.714 155.409 232.237 155.136 230.953 154.591C229.68 154.034 228.68 153.193 227.953 152.068C227.226 150.943 226.862 149.511 226.862 147.773C226.862 146.341 227.107 145.119 227.595 144.108C228.084 143.085 228.766 142.25 229.641 141.602C230.516 140.955 231.533 140.46 232.692 140.119C233.862 139.778 235.124 139.557 236.476 139.455C237.942 139.341 239.118 139.205 240.004 139.045C240.902 138.875 241.55 138.642 241.947 138.347C242.345 138.04 242.544 137.636 242.544 137.136V137.068C242.544 136.386 242.283 135.864 241.76 135.5C241.237 135.136 240.567 134.955 239.749 134.955C238.851 134.955 238.118 135.153 237.55 135.551C236.993 135.937 236.658 136.534 236.544 137.341H227.885C227.999 135.75 228.504 134.284 229.402 132.943C230.311 131.591 231.635 130.511 233.374 129.705C235.112 128.886 237.283 128.477 239.885 128.477C241.76 128.477 243.442 128.699 244.93 129.142C246.419 129.574 247.686 130.182 248.732 130.966C249.777 131.739 250.572 132.648 251.118 133.693C251.675 134.727 251.953 135.852 251.953 137.068V155H243.158V151.318H242.953C242.43 152.295 241.794 153.085 241.044 153.688C240.305 154.29 239.459 154.727 238.504 155C237.561 155.273 236.521 155.409 235.385 155.409ZM238.453 149.477C239.169 149.477 239.839 149.33 240.464 149.034C241.101 148.739 241.618 148.312 242.016 147.756C242.413 147.199 242.612 146.523 242.612 145.727V143.545C242.362 143.648 242.095 143.744 241.811 143.835C241.538 143.926 241.243 144.011 240.925 144.091C240.618 144.17 240.288 144.244 239.936 144.312C239.595 144.381 239.237 144.443 238.862 144.5C238.135 144.614 237.538 144.801 237.072 145.062C236.618 145.312 236.277 145.625 236.05 146C235.834 146.364 235.726 146.773 235.726 147.227C235.726 147.955 235.982 148.511 236.493 148.898C237.004 149.284 237.658 149.477 238.453 149.477ZM265.858 120.091V155H256.449V120.091H265.858ZM283.266 155.477C280.425 155.477 277.993 154.915 275.97 153.79C273.947 152.653 272.396 151.074 271.317 149.051C270.237 147.017 269.697 144.659 269.697 141.977C269.697 139.295 270.237 136.943 271.317 134.92C272.396 132.886 273.947 131.307 275.97 130.182C277.993 129.045 280.425 128.477 283.266 128.477C286.107 128.477 288.538 129.045 290.561 130.182C292.584 131.307 294.135 132.886 295.214 134.92C296.294 136.943 296.834 139.295 296.834 141.977C296.834 144.659 296.294 147.017 295.214 149.051C294.135 151.074 292.584 152.653 290.561 153.79C288.538 154.915 286.107 155.477 283.266 155.477ZM283.334 148.523C284.129 148.523 284.817 148.256 285.396 147.722C285.976 147.187 286.425 146.426 286.743 145.438C287.061 144.449 287.22 143.273 287.22 141.909C287.22 140.534 287.061 139.358 286.743 138.381C286.425 137.392 285.976 136.631 285.396 136.097C284.817 135.562 284.129 135.295 283.334 135.295C282.493 135.295 281.771 135.562 281.169 136.097C280.567 136.631 280.107 137.392 279.788 138.381C279.47 139.358 279.311 140.534 279.311 141.909C279.311 143.273 279.47 144.449 279.788 145.438C280.107 146.426 280.567 147.187 281.169 147.722C281.771 148.256 282.493 148.523 283.334 148.523ZM313.266 165.364C310.641 165.364 308.391 164.989 306.516 164.239C304.652 163.5 303.203 162.477 302.169 161.17C301.146 159.875 300.572 158.386 300.447 156.705H309.516C309.607 157.261 309.834 157.71 310.197 158.051C310.561 158.392 311.027 158.636 311.595 158.784C312.175 158.943 312.822 159.023 313.538 159.023C314.754 159.023 315.76 158.727 316.555 158.136C317.362 157.545 317.766 156.477 317.766 154.932V150.5H317.493C317.152 151.386 316.629 152.142 315.925 152.767C315.22 153.381 314.374 153.852 313.385 154.182C312.396 154.5 311.311 154.659 310.129 154.659C308.266 154.659 306.55 154.227 304.982 153.364C303.425 152.5 302.175 151.131 301.232 149.256C300.3 147.381 299.834 144.932 299.834 141.909C299.834 138.75 300.322 136.182 301.3 134.205C302.288 132.227 303.561 130.778 305.118 129.858C306.686 128.938 308.334 128.477 310.061 128.477C311.357 128.477 312.493 128.705 313.47 129.159C314.447 129.602 315.266 130.199 315.925 130.949C316.584 131.687 317.084 132.5 317.425 133.386H317.629V128.818H327.038V154.932C327.038 157.148 326.464 159.028 325.317 160.574C324.18 162.131 322.578 163.318 320.51 164.136C318.442 164.955 316.027 165.364 313.266 165.364ZM313.607 147.977C314.47 147.977 315.209 147.739 315.822 147.261C316.447 146.773 316.925 146.08 317.254 145.182C317.595 144.273 317.766 143.182 317.766 141.909C317.766 140.614 317.595 139.506 317.254 138.585C316.925 137.653 316.447 136.943 315.822 136.455C315.209 135.955 314.47 135.705 313.607 135.705C312.743 135.705 312.004 135.955 311.391 136.455C310.788 136.943 310.322 137.653 309.993 138.585C309.675 139.506 309.516 140.614 309.516 141.909C309.516 143.205 309.675 144.307 309.993 145.216C310.322 146.114 310.788 146.801 311.391 147.278C312.004 147.744 312.743 147.977 313.607 147.977ZM348.801 143.545V128.818H358.21V155H349.278V150.023H349.006C348.438 151.693 347.443 153 346.023 153.943C344.602 154.875 342.915 155.341 340.96 155.341C339.131 155.341 337.528 154.92 336.153 154.08C334.79 153.239 333.727 152.08 332.966 150.602C332.216 149.125 331.835 147.432 331.824 145.523V128.818H341.233V143.545C341.244 144.841 341.574 145.858 342.222 146.597C342.881 147.335 343.801 147.705 344.983 147.705C345.767 147.705 346.443 147.54 347.011 147.21C347.591 146.869 348.034 146.392 348.341 145.778C348.659 145.153 348.813 144.409 348.801 143.545ZM375.541 155.477C372.746 155.477 370.337 154.943 368.314 153.875C366.303 152.795 364.751 151.25 363.661 149.239C362.581 147.216 362.041 144.795 362.041 141.977C362.041 139.273 362.587 136.909 363.678 134.886C364.768 132.864 366.308 131.29 368.297 130.165C370.286 129.04 372.632 128.477 375.337 128.477C377.314 128.477 379.104 128.784 380.706 129.398C382.308 130.011 383.678 130.903 384.814 132.074C385.95 133.233 386.825 134.642 387.439 136.301C388.053 137.96 388.359 139.83 388.359 141.909V144.091H364.973V138.909H379.7C379.689 138.159 379.496 137.5 379.121 136.932C378.757 136.352 378.263 135.903 377.638 135.585C377.024 135.256 376.325 135.091 375.541 135.091C374.78 135.091 374.081 135.256 373.445 135.585C372.808 135.903 372.297 136.347 371.911 136.915C371.536 137.483 371.337 138.148 371.314 138.909V144.5C371.314 145.341 371.49 146.091 371.842 146.75C372.195 147.409 372.7 147.926 373.359 148.301C374.018 148.676 374.814 148.864 375.746 148.864C376.393 148.864 376.984 148.773 377.518 148.591C378.064 148.409 378.53 148.148 378.916 147.807C379.303 147.455 379.587 147.034 379.768 146.545H388.359C388.064 148.364 387.365 149.943 386.263 151.284C385.161 152.614 383.7 153.648 381.882 154.386C380.075 155.114 377.962 155.477 375.541 155.477Z" fill="#0AC404"/>
</g>
<path d="M125.727 17L96.5072 25.4972L108.338 17.4903C100.869 19.1777 91.433 22.4786 79.5741 27.8061L60.218 47.9845L67.0881 33.889C60.446 37.5832 53.4048 42.4261 46.6202 48.0985L42.1161 66.4269L41.1468 52.8588C34.4477 59.0157 28.1477 65.8568 22.9309 73.0685C17.4491 80.6222 13.1645 88.6035 11.0179 96.5563L3.00178 91.1974C3.72015 97.953 5.94084 103.825 9.58402 109.212L0 106.276C2.17793 112.975 5.73844 117.308 11.7591 120.814C8.38673 130.306 6.80459 140.225 5.10558 150.116L10.3509 151C16.4342 90.3708 59.3627 51.7186 98.1606 34.593L100.128 39.5471C65.4347 55.0821 38.4672 81.3063 24.3563 119.103C29.516 119.132 34.5618 118.505 39.2369 117.308L40.6337 99.9483L44.3681 115.768C47.4754 114.628 50.3261 113.26 52.8632 111.664L46.9622 99.2642L56.3125 109.184C58.5931 107.359 60.4745 105.307 61.8999 103.055C70.566 89.5156 79.6311 76.0615 97.4765 64.8022L84.4488 60.1844L104.432 60.783C107.682 59.1298 111.103 57.1059 113.697 55.1961L99.529 54.0559L120.824 49.0391C122.477 47.3859 124.016 45.6471 125.413 43.9083C130.345 37.6544 133.68 31.144 132.882 25.2236C132.511 22.2619 130.744 19.477 127.865 17.9178C127.152 17.5473 126.382 17.2195 125.727 17V17Z" fill="#0AC404"/>
<defs>
<filter id="filter0_d_48_49" x="143.25" y="11.0908" width="312.064" height="99.4551" filterUnits="userSpaceOnUse" color-interpolation-filters="sRGB">
<feFlood flood-opacity="0" result="BackgroundImageFix"/>
<feColorMatrix in="SourceAlpha" type="matrix" values="0 0 0 0 0 0 0 0 0 0 0 0 0 0 0 0 0 0 127 0" result="hardAlpha"/>
<feOffset dx="6" dy="6"/>
<feComposite in2="hardAlpha" operator="out"/>
<feColorMatrix type="matrix" values="0 0 0 0 0 0 0 0 0 0 0 0 0 0 0 0 0 0 0.2 0"/>
<feBlend mode="normal" in2="BackgroundImageFix" result="effect1_dropShadow_48_49"/>
<feBlend mode="normal" in="SourceGraphic" in2="effect1_dropShadow_48_49" result="shape"/>
</filter>
<filter id="filter1_d_48_49" x="143.114" y="119.613" width="251.246" height="51.7505" filterUnits="userSpaceOnUse" color-interpolation-filters="sRGB">
<feFlood flood-opacity="0" result="BackgroundImageFix"/>
<feColorMatrix in="SourceAlpha" type="matrix" values="0 0 0 0 0 0 0 0 0 0 0 0 0 0 0 0 0 0 127 0" result="hardAlpha"/>
<feOffset dx="6" dy="6"/>
<feComposite in2="hardAlpha" operator="out"/>
<feColorMatrix type="matrix" values="0 0 0 0 0 0 0 0 0 0 0 0 0 0 0 0 0 0 0.2 0"/>
<feBlend mode="normal" in2="BackgroundImageFix" result="effect1_dropShadow_48_49"/>
<feBlend mode="normal" in="SourceGraphic" in2="effect1_dropShadow_48_49" result="shape"/>
</filter>
</defs>
</svg>
